# xmcd
#
# Track frame offsets: 
#        150
#        20636
#        37373
#        53962
#        70790
#        87077
#        103272
#        128232
#        143533
#        159834
#        178210
#        196600
#        212929
#
# Disc length: 3173 seconds
#
# Revision: 1
# Processed by: cddbd v1.5.2PL0 Copyright (c) Steve Scherf et al.
# Submitted via: ExactAudioCopyFreeDBPlugin 1.0
#
DISCID=b90c630d
DTITLE=Timo Pieni Huijaus - Kaikki Loppuu
DYEAR=2012
DGENRE=Rap
TTITLE0=Kaikki Loppuu
TTITLE1=Kuutamokeikkaa (feat. Elastinen)
TTITLE2=Pahoillani Äiti
TTITLE3=Keskellä
TTITLE4=Suomi-Neito
TTITLE5=Listan Ykkönen (feat. JVG)
TTITLE6=Ysiseiska (feat. Andu)
TTITLE7=Jos Te Vaan Seisotte Vieres
TTITLE8=Pleiboi
TTITLE9=Ruusuja (feat. Illi)
TTITLE10=Sydämeni (feat. Tasis)
TTITLE11=Paratiisi
TTITLE12=Viimeinen Hidas (feat. Illi)
EXTD=
EXTT0=
EXTT1=
EXTT2=
EXTT3=
EXTT4=
EXTT5=
EXTT6=
EXTT7=
EXTT8=
EXTT9=
EXTT10=
EXTT11=
EXTT12=
PLAYORDER=
